<svg width="20" height="18" viewBox="0 0 20 18" fill="none" xmlns="http://www.w3.org/2000/svg">
<path fill-rule="evenodd" clip-rule="evenodd" d="M13.06 14.288C12.8477 14.8438 12.8403 15.4621 13.0392 16.0233C13.2382 16.5844 13.6294 17.0484 14.137 17.3255C14.6446 17.6026 15.2326 17.673 15.7871 17.523C16.3415 17.3731 16.823 17.0135 17.1383 16.514C17.4535 16.0144 17.5802 15.4103 17.4937 14.8188C17.4072 14.2272 17.1136 13.6902 16.67 13.3119C16.2263 12.9335 15.664 12.7405 15.092 12.7705C14.52 12.8004 13.979 13.0511 13.5737 13.4739C13.3514 13.7061 13.1766 13.983 13.06 14.288ZM14.8207 14.288C14.9338 14.237 15.0557 14.2107 15.1789 14.2107C15.3021 14.2107 15.424 14.237 15.5371 14.288C15.6411 14.3345 15.7354 14.4016 15.815 14.4857C15.8987 14.5728 15.9651 14.6764 16.0104 14.7904C16.0558 14.9044 16.0791 15.0267 16.0791 15.1502C16.0791 15.2736 16.0558 15.3959 16.0104 15.5099C15.9651 15.624 15.8987 15.7275 15.815 15.8146C15.8074 15.8237 15.7993 15.8321 15.7907 15.84C15.6243 16.0012 15.4058 16.0907 15.1789 16.0907C14.952 16.0907 14.7335 16.0012 14.5671 15.84C14.5585 15.8321 14.5503 15.8236 14.5427 15.8146C14.459 15.7275 14.3925 15.624 14.3472 15.5099C14.3019 15.3959 14.2786 15.2736 14.2786 15.1502C14.2786 15.0267 14.3019 14.9044 14.3472 14.7904C14.3925 14.6764 14.459 14.5728 14.5427 14.4857C14.6222 14.4016 14.7166 14.3345 14.8207 14.288Z" fill="#B3B0B5"/>
<path fill-rule="evenodd" clip-rule="evenodd" d="M11.1865 4.83476H12.7135V3.6122C12.713 3.45057 12.6514 3.29568 12.5421 3.18132C12.4328 3.06695 12.2847 3.00239 12.13 3.00171H9.90858C9.7539 3.00239 9.60575 3.06695 9.49644 3.18132C9.38714 3.29568 9.32555 3.45057 9.3251 3.6122V4.8346L11.1865 4.83476Z" fill="#FF5A58"/>
<path fill-rule="evenodd" clip-rule="evenodd" d="M11.1865 14.288V4.83496H1.3136C1.21306 4.83553 1.1168 4.8775 1.04569 4.95177C0.974585 5.02603 0.934377 5.1266 0.933792 5.23165V14.288H3.45309C3.62445 13.8394 3.92064 13.4547 4.30338 13.1837C4.68612 12.9127 5.13783 12.7678 5.60017 12.7678C6.0625 12.7678 6.51422 12.9127 6.89696 13.1837C7.2797 13.4547 7.57588 13.8394 7.74724 14.288L11.1865 14.288ZM6.47048 6.61214C6.59612 6.61226 6.71658 6.66445 6.80543 6.75726C6.89428 6.85007 6.94427 6.97592 6.94443 7.1072V8.01377H7.81357C7.93909 8.0143 8.05932 8.06662 8.14809 8.15934C8.23686 8.25207 8.28697 8.37768 8.28752 8.50883V9.36724C8.287 9.4984 8.2369 9.62403 8.14812 9.71676C8.05935 9.80949 7.9391 9.8618 7.81357 9.8623H6.94443V10.7689C6.94409 10.9001 6.89404 11.0258 6.80523 11.1186C6.71641 11.2114 6.59606 11.2636 6.47048 11.2639H5.65017C5.52459 11.2636 5.40424 11.2114 5.31542 11.1186C5.22661 11.0258 5.17656 10.9001 5.17622 10.7689V9.86213H4.30677C4.18139 9.86156 4.06132 9.80921 3.97274 9.7165C3.88416 9.62379 3.83425 9.49824 3.83391 9.36724V8.50899C3.83421 8.37796 3.8841 8.25237 3.97268 8.15962C4.06127 8.06688 4.18137 8.0145 4.30677 8.01393H5.17607V7.10736C5.17618 6.97606 5.22615 6.85017 5.31501 6.75732C5.40386 6.66447 5.52435 6.61226 5.65001 6.61214H6.47048Z" fill="#FFC801"/>
<path fill-rule="evenodd" clip-rule="evenodd" d="M8.28747 9.36728V8.50904C8.28696 8.37788 8.23686 8.25224 8.14808 8.15951C8.05931 8.06678 7.93905 8.01447 7.81353 8.01398H6.94439V7.10741C6.94425 6.97611 6.89427 6.85023 6.80542 6.75739C6.71657 6.66454 6.5961 6.61232 6.47044 6.61218H5.64985C5.52417 6.61228 5.40366 6.66448 5.31477 6.75733C5.22588 6.85017 5.17588 6.97608 5.17575 7.10741V8.01398H4.30661C4.18121 8.01455 4.06111 8.06692 3.97252 8.15967C3.88394 8.25241 3.83405 8.378 3.83376 8.50904V9.36728C3.83405 9.49831 3.88394 9.6239 3.97252 9.71665C4.06111 9.8094 4.18121 9.86177 4.30661 9.86234H5.17575V10.7689C5.17611 10.9001 5.22617 11.0258 5.31497 11.1186C5.40378 11.2114 5.52412 11.2636 5.6497 11.264H6.47032C6.5959 11.2636 6.71624 11.2114 6.80505 11.1186C6.89385 11.0258 6.94391 10.9001 6.94427 10.7689V9.86218H7.81341C7.93893 9.86171 8.05919 9.80944 8.14798 9.71674C8.23678 9.62404 8.28692 9.49843 8.28747 9.36728Z" fill="#0095FF"/>
<path fill-rule="evenodd" clip-rule="evenodd" d="M3.4531 14.2881H0.390121V15.84H3.37657C3.23757 15.3281 3.26447 14.7824 3.4531 14.2881Z" fill="white"/>
<path fill-rule="evenodd" clip-rule="evenodd" d="M4.96337 14.5159C4.79536 14.6911 4.7005 14.9287 4.69947 15.1767C4.69844 15.4248 4.79132 15.6632 4.95786 15.84C4.96001 15.8412 4.96122 15.8435 4.96337 15.8446C5.04682 15.932 5.14597 16.0014 5.25513 16.0487C5.36429 16.0961 5.48131 16.1204 5.5995 16.1204C5.71768 16.1204 5.83471 16.0961 5.94387 16.0487C6.05302 16.0014 6.15217 15.932 6.23563 15.8446C6.23775 15.8434 6.23966 15.8418 6.24129 15.84C6.40785 15.6632 6.50073 15.4248 6.49967 15.1767C6.49861 14.9286 6.40369 14.6911 6.23563 14.5159C6.13682 14.4117 6.01575 14.3336 5.88239 14.288C5.72403 14.2334 5.55427 14.2258 5.39202 14.266C5.22976 14.3063 5.08137 14.3927 4.96337 14.5159Z" fill="#F9F9F9"/>
<path fill-rule="evenodd" clip-rule="evenodd" d="M6.23564 14.5159C6.4037 14.6912 6.49862 14.9287 6.49968 15.1768C6.50074 15.4248 6.40786 15.6633 6.24131 15.8401C6.23967 15.8419 6.23776 15.8435 6.23564 15.8447C6.15218 15.9321 6.05304 16.0015 5.94388 16.0488C5.83472 16.0962 5.71769 16.1205 5.59951 16.1205C5.48132 16.1205 5.3643 16.0962 5.25514 16.0488C5.14598 16.0015 5.04683 15.9321 4.96338 15.8447C4.96123 15.8436 4.96002 15.8413 4.95787 15.8401C4.79129 15.6633 4.69839 15.4249 4.69942 15.1768C4.70045 14.9288 4.79534 14.6912 4.96338 14.5159C5.04688 14.4286 5.14604 14.3593 5.25519 14.312C5.36435 14.2647 5.48135 14.2404 5.59951 14.2404C5.71767 14.2404 5.83467 14.2647 5.94382 14.312C6.05298 14.3593 6.15214 14.4286 6.23564 14.5159ZM7.23342 13.474C6.82925 13.0529 6.28992 12.8034 5.71983 12.7738C5.14973 12.7443 4.58942 12.9368 4.14734 13.3141C3.70526 13.6913 3.41286 14.2266 3.32673 14.8162C3.2406 15.4058 3.36686 16.0078 3.68108 16.5057C3.9953 17.0036 4.47514 17.362 5.0277 17.5115C5.58027 17.661 6.16628 17.591 6.67229 17.315C7.1783 17.0391 7.56834 16.5768 7.7669 16.0176C7.96546 15.4584 7.95843 14.8422 7.74717 14.2881C7.63068 13.9831 7.45587 13.7061 7.23342 13.474Z" fill="#B3B0B5"/>
<path fill-rule="evenodd" clip-rule="evenodd" d="M14.5427 14.4857C14.459 14.5728 14.3926 14.6764 14.3473 14.7904C14.302 14.9044 14.2787 15.0267 14.2787 15.1501C14.2787 15.2736 14.302 15.3958 14.3473 15.5099C14.3926 15.6239 14.459 15.7274 14.5427 15.8146L14.5671 15.8399C14.7335 16.0011 14.952 16.0907 15.1789 16.0907C15.4058 16.0907 15.6243 16.0011 15.7907 15.8399L15.8151 15.8146C15.8988 15.7274 15.9652 15.6239 16.0105 15.5099C16.0558 15.3958 16.0791 15.2736 16.0791 15.1501C16.0791 15.0267 16.0558 14.9044 16.0105 14.7904C15.9652 14.6764 15.8988 14.5728 15.8151 14.4857C15.7356 14.4016 15.6412 14.3344 15.5371 14.2879C15.424 14.237 15.3021 14.2107 15.1789 14.2107C15.0557 14.2107 14.9338 14.237 14.8207 14.2879C14.7167 14.3344 14.6222 14.4016 14.5427 14.4857Z" fill="#F9F9F9"/>
<path fill-rule="evenodd" clip-rule="evenodd" d="M16.8416 13.4739C17.0639 13.7061 17.2387 13.983 17.3555 14.288H18.8711V11.6244H17.5182C17.3281 11.6239 17.1459 11.5448 17.0114 11.4044C16.8769 11.264 16.8011 11.0737 16.8005 10.875V9.80887H15.2138C14.8039 9.80779 14.411 9.6373 14.121 9.3346C13.8309 9.03191 13.6673 8.62161 13.6658 8.19328V4.83472H11.1865V14.2878H13.0601C13.202 13.9164 13.4298 13.5877 13.7231 13.331C14.0165 13.0743 14.3662 12.8977 14.741 12.817C15.1158 12.7363 15.5039 12.754 15.8704 12.8687C16.237 12.9833 16.5706 13.1912 16.8414 13.4737L16.8416 13.4739Z" fill="#FFC801"/>
<path fill-rule="evenodd" clip-rule="evenodd" d="M17.5182 11.6244H18.8711V9.80896H16.8005V10.8753C16.8012 11.0739 16.877 11.2641 17.0115 11.4045C17.1459 11.5449 17.3281 11.6239 17.5182 11.6244Z" fill="#FFC801"/>
<path fill-rule="evenodd" clip-rule="evenodd" d="M16.8006 9.80895H18.8711L16.7729 7.12463C15.6908 5.74039 15.3875 4.83484 13.7266 4.83484H13.6657V8.1934C13.6672 8.62174 13.8308 9.03205 14.1209 9.33475C14.4109 9.63745 14.8038 9.80794 15.2137 9.80899L16.8006 9.80895Z" fill="#B0E7F8"/>
<path fill-rule="evenodd" clip-rule="evenodd" d="M18.8711 14.288H17.3555C17.5431 14.7827 17.5695 15.3281 17.4307 15.84H18.8715C19.0671 15.8395 19.2547 15.7581 19.393 15.6135C19.5314 15.469 19.6094 15.273 19.61 15.0686V15.0582C19.6094 14.8538 19.5313 14.6581 19.3929 14.5137C19.2544 14.3693 19.0669 14.2882 18.8713 14.288L18.8711 14.288Z" fill="#0095FF"/>
<path d="M11.1433 1.81828C11.1946 1.81827 11.2453 1.80771 11.2927 1.78721C11.34 1.76671 11.383 1.73667 11.4193 1.6988C11.4555 1.66092 11.4842 1.61597 11.5038 1.56649C11.5234 1.51702 11.5335 1.46399 11.5335 1.41045V0.407876C11.5335 0.299733 11.4924 0.196019 11.4192 0.119551C11.346 0.0430818 11.2468 0.00012207 11.1433 0.00012207C11.0398 0.00012207 10.9405 0.0430818 10.8673 0.119551C10.7941 0.196019 10.753 0.299733 10.753 0.407876V1.41061C10.7531 1.51874 10.7942 1.62243 10.8674 1.69887C10.9406 1.77532 11.0399 1.81827 11.1433 1.81828Z" fill="#FF5A58"/>
<path d="M12.3192 1.64483C12.3581 1.67967 12.4032 1.70615 12.4519 1.72276C12.5006 1.73938 12.552 1.74579 12.6031 1.74165C12.6542 1.7375 12.704 1.72287 12.7497 1.6986C12.7954 1.67432 12.8361 1.64088 12.8694 1.60017L13.4508 0.889971C13.4851 0.849431 13.5113 0.802157 13.528 0.750904C13.5446 0.699651 13.5514 0.645445 13.5478 0.591449C13.5442 0.537452 13.5303 0.484745 13.507 0.436401C13.4837 0.388057 13.4514 0.345044 13.4121 0.309869C13.3727 0.274695 13.327 0.248064 13.2777 0.231528C13.2284 0.214993 13.1764 0.208885 13.1248 0.21356C13.0732 0.218235 13.023 0.2336 12.9771 0.258758C12.9312 0.283916 12.8906 0.318365 12.8576 0.360095L12.2763 1.07009C12.243 1.11079 12.2176 1.15794 12.2018 1.20886C12.1859 1.25978 12.1798 1.31347 12.1838 1.36686C12.1878 1.42025 12.2018 1.4723 12.225 1.52003C12.2483 1.56776 12.2803 1.61023 12.3192 1.64503L12.3192 1.64483Z" fill="#0095FF"/>
<path d="M9.33867 1.60041C9.40617 1.68185 9.50178 1.73207 9.60461 1.74011C9.70743 1.74814 9.80912 1.71333 9.88747 1.64329C9.96582 1.57324 10.0145 1.47365 10.0228 1.36626C10.0311 1.25887 9.99836 1.1524 9.9318 1.07012L9.35043 0.360123C9.31711 0.319429 9.27646 0.28599 9.23078 0.261715C9.1851 0.237439 9.13529 0.222803 9.08419 0.218641C8.981 0.210237 8.87884 0.245008 8.80019 0.315307C8.72154 0.385605 8.67283 0.485672 8.66479 0.593494C8.65674 0.701315 8.69002 0.80806 8.7573 0.890244L9.33867 1.60041Z" fill="#0095FF"/>
<path d="M19.2615 13.9529V9.80896C19.2611 9.71499 19.23 9.62398 19.1734 9.55096L17.075 6.8668C16.889 6.62876 16.7285 6.40762 16.5732 6.19399C15.8276 5.16815 15.289 4.42709 13.7266 4.42709H13.1036V3.6122C13.1035 3.34233 13.0009 3.08355 12.8183 2.89264C12.6358 2.70173 12.3882 2.59428 12.13 2.59387H9.90858C9.65032 2.59428 9.40275 2.70173 9.22021 2.89264C9.03767 3.08355 8.93506 3.34233 8.93491 3.6122V4.42693H6.77733C6.67383 4.42693 6.57457 4.46989 6.50139 4.54636C6.42821 4.62283 6.38709 4.72654 6.38709 4.83468C6.38709 4.94283 6.42821 5.04654 6.50139 5.12301C6.57457 5.19948 6.67383 5.24244 6.77733 5.24244H10.7962V13.8804H7.99729C7.76896 13.422 7.42467 13.0379 7.00189 12.7698C6.57911 12.5017 6.09405 12.36 5.59951 12.36C5.10497 12.36 4.61991 12.5017 4.19713 12.7698C3.77435 13.0379 3.43006 13.422 3.20173 13.8804H1.32419V5.24264H3.83287C3.93637 5.24264 4.03562 5.19968 4.10881 5.12321C4.18199 5.04674 4.2231 4.94303 4.2231 4.83489C4.2231 4.72674 4.18199 4.62303 4.10881 4.54656C4.03562 4.47009 3.93637 4.42713 3.83287 4.42713H1.31376C1.10962 4.42733 0.913897 4.51213 0.769521 4.66292C0.625145 4.81372 0.543911 5.0182 0.543643 5.2315V13.8802H0.390166C0.338913 13.8802 0.288163 13.8908 0.240814 13.9113C0.193465 13.9318 0.150446 13.9618 0.114211 13.9997C0.0779774 14.0376 0.0492388 14.0825 0.029637 14.132C0.0100352 14.1815 -4.58915e-05 14.2345 -3.05e-05 14.2881V15.84C-4.07606e-05 15.8936 0.0100428 15.9466 0.0296445 15.9961C0.0492462 16.0456 0.0779821 16.0905 0.114211 16.1284C0.150441 16.1663 0.193454 16.1963 0.240796 16.2168C0.288138 16.2373 0.33888 16.2479 0.390127 16.2479H3.0983C3.30188 16.7663 3.6484 17.2097 4.0938 17.5217C4.53919 17.8338 5.06333 18.0004 5.59959 18.0004C6.13585 18.0004 6.65999 17.8338 7.10539 17.5217C7.55078 17.2097 7.8973 16.7663 8.10088 16.2479H12.7064C12.91 16.7662 13.2565 17.2095 13.7019 17.5216C14.1473 17.8336 14.6714 18.0002 15.2077 18.0002C15.7439 18.0002 16.268 17.8336 16.7134 17.5216C17.1588 17.2095 17.5053 16.7662 17.709 16.2479H18.8711C19.1704 16.2476 19.4573 16.1233 19.6689 15.9022C19.8805 15.6811 19.9996 15.3814 20 15.0687V15.0583C19.9997 14.8173 19.9287 14.5822 19.7967 14.3846C19.6647 14.187 19.4779 14.0364 19.2615 13.953V13.9529ZM2.9097 15.4323H0.780479V14.6959H2.93884C2.91221 14.8558 2.89869 15.0179 2.89841 15.1803C2.89841 15.2649 2.90251 15.3489 2.90955 15.4323H2.9097ZM6.95756 16.5983C6.64626 16.9236 6.23741 17.1273 5.79951 17.1752C5.36161 17.2232 4.92125 17.1124 4.55219 16.8615C4.18313 16.6106 3.90779 16.2348 3.77227 15.7971C3.63676 15.3594 3.64931 14.8863 3.80783 14.4571C3.81482 14.4415 3.82083 14.4255 3.82584 14.4091C3.93481 14.1352 4.10053 13.8899 4.31108 13.691C4.52163 13.492 4.77178 13.3443 5.04351 13.2584C5.31524 13.1726 5.60181 13.1508 5.88258 13.1945C6.16336 13.2383 6.43136 13.3465 6.66731 13.5114C6.90325 13.6764 7.10127 13.8939 7.24711 14.1484C7.39296 14.4029 7.483 14.688 7.51075 14.9832C7.53851 15.2784 7.5033 15.5764 7.40764 15.8556C7.31199 16.1349 7.15827 16.3886 6.95756 16.5983V16.5983ZM14.056 5.25746C14.9752 5.34452 15.3226 5.82187 15.9516 6.68729C16.1037 6.89648 16.2758 7.13358 16.4707 7.38276L18.0486 9.40108H15.2138C14.9071 9.40101 14.613 9.2738 14.3959 9.04738C14.1788 8.82096 14.0566 8.51381 14.056 8.19333V5.25746ZM18.481 10.2166V11.217H17.5182C17.4315 11.2169 17.3483 11.1809 17.287 11.1168C17.2256 11.0528 17.1911 10.9659 17.1909 10.8753V10.2166H18.481ZM9.71538 4.42709V3.6122C9.71594 3.55876 9.73645 3.50766 9.77252 3.46978C9.8086 3.4319 9.85741 3.41023 9.90854 3.40938H12.1299C12.1811 3.4102 12.2299 3.43185 12.266 3.46973C12.3021 3.50762 12.3227 3.55873 12.3232 3.6122V4.42693L9.71538 4.42709ZM8.26022 14.6957H10.7964V15.4322H8.28936C8.29639 15.3489 8.30049 15.2648 8.30049 15.1803C8.30027 15.0178 8.28679 14.8557 8.26022 14.6957ZM12.518 15.4323H11.5767V14.6958H12.5469C12.5203 14.8558 12.5068 15.0179 12.5066 15.1802C12.5066 15.2649 12.5107 15.3489 12.5177 15.4323L12.518 15.4323ZM16.5656 16.5983C16.2543 16.9236 15.8454 17.1272 15.4075 17.1751C14.9696 17.223 14.5293 17.1122 14.1602 16.8613C13.7912 16.6104 13.5159 16.2346 13.3804 15.7969C13.2449 15.3591 13.2575 14.8861 13.416 14.4569C13.423 14.4414 13.4289 14.4254 13.4339 14.409C13.5428 14.1351 13.7085 13.8898 13.9191 13.6908C14.1296 13.4918 14.3798 13.3441 14.6515 13.2582C14.9233 13.1724 15.2099 13.1505 15.4907 13.1943C15.7715 13.238 16.0395 13.3462 16.2755 13.5112C16.5114 13.6761 16.7095 13.8937 16.8553 14.1482C17.0012 14.4027 17.0912 14.6879 17.1189 14.9831C17.1467 15.2783 17.1115 15.5763 17.0158 15.8556C16.9201 16.1349 16.7663 16.3885 16.5656 16.5983ZM17.6055 13.8802C17.3771 13.4218 17.0329 13.0377 16.6101 12.7696C16.1873 12.5015 15.7022 12.3597 15.2077 12.3597C14.7132 12.3597 14.2281 12.5015 13.8053 12.7696C13.3825 13.0377 13.0382 13.4218 12.8099 13.8802H11.5767V5.2426H13.2755V8.19333C13.2763 8.73002 13.4809 9.24445 13.8442 9.62376C14.2076 10.0031 14.7002 10.2163 15.2138 10.2166H16.4102V10.8752C16.4105 11.1821 16.5273 11.4763 16.735 11.6933C16.9428 11.9103 17.2244 12.0323 17.5181 12.0326H18.481V13.8803L17.6055 13.8802ZM19.2195 15.0686C19.2194 15.1651 19.1826 15.2575 19.1173 15.3256C19.052 15.3938 18.9635 15.4321 18.8712 15.4321H17.8975C17.9046 15.3489 17.9087 15.2648 17.9087 15.1802C17.9085 15.0178 17.895 14.8557 17.8684 14.6957H18.8711C18.9633 14.6956 19.0517 14.7337 19.117 14.8016C19.1823 14.8696 19.2192 14.9618 19.2195 15.0581L19.2195 15.0686Z" fill="black"/>
<path d="M3.44373 8.50912V9.36736C3.44386 9.60657 3.5348 9.83596 3.6966 10.0052C3.8584 10.1744 4.07784 10.2697 4.30677 10.2701H4.78576V10.769C4.78607 11.0084 4.87724 11.2378 5.03926 11.4071C5.20128 11.5763 5.42093 11.6715 5.65002 11.6717H6.47033C6.69941 11.6715 6.91904 11.5763 7.08104 11.4071C7.24304 11.2378 7.33417 11.0084 7.33444 10.769V10.27H7.81342C8.04252 10.2698 8.26218 10.1746 8.42422 10.0054C8.58626 9.8362 8.67746 9.60674 8.6778 9.36736V8.50912C8.67749 8.26974 8.58632 8.04026 8.4243 7.87103C8.26228 7.7018 8.04263 7.60662 7.81354 7.60638H7.33459V7.10732C7.33433 6.86796 7.24319 6.63849 7.0812 6.46925C6.9192 6.30001 6.69957 6.20483 6.47049 6.20459H5.65018C5.42108 6.20483 5.20144 6.3 5.03941 6.46924C4.87739 6.63847 4.78623 6.86795 4.78592 7.10732V7.60638H4.30677C4.07784 7.60677 3.8584 7.70204 3.6966 7.87127C3.5348 8.04051 3.44386 8.2699 3.44373 8.50912ZM4.2242 8.50912C4.22438 8.48621 4.23311 8.46429 4.24852 8.448C4.26394 8.43171 4.28482 8.42235 4.30674 8.42189H5.17576C5.22702 8.4219 5.27778 8.41135 5.32513 8.39086C5.37249 8.37036 5.41552 8.34032 5.45177 8.30245C5.48801 8.26458 5.51676 8.21962 5.53637 8.17013C5.55599 8.12065 5.56608 8.06762 5.56607 8.01406V7.10732C5.56615 7.08416 5.57501 7.06196 5.59071 7.04561C5.60642 7.02926 5.62769 7.02009 5.64986 7.0201H6.47018C6.49233 7.02012 6.51356 7.02931 6.52924 7.04566C6.54491 7.06201 6.55375 7.08418 6.55381 7.10732V8.01406C6.55382 8.12222 6.59495 8.22595 6.66814 8.30243C6.74134 8.37891 6.84061 8.42188 6.94412 8.42189H7.81342C7.83542 8.42243 7.85637 8.43179 7.87194 8.44803C7.88751 8.46426 7.8965 8.48614 7.89706 8.50912V9.36736C7.89643 9.39032 7.88742 9.41215 7.87186 9.42837C7.85631 9.4446 7.83539 9.45398 7.81342 9.45458H6.9444C6.84088 9.45459 6.74161 9.49757 6.66842 9.57405C6.59522 9.65053 6.5541 9.75426 6.55408 9.86242V10.769C6.55379 10.7921 6.54488 10.8141 6.52925 10.8304C6.51363 10.8467 6.49253 10.8559 6.47045 10.8562H5.65014C5.62804 10.856 5.6069 10.8467 5.59124 10.8304C5.57559 10.8141 5.56665 10.7921 5.56635 10.769V9.86226C5.56635 9.8087 5.55626 9.75566 5.53665 9.70618C5.51703 9.6567 5.48828 9.61173 5.45204 9.57386C5.41579 9.53599 5.37276 9.50595 5.32541 9.48545C5.27805 9.46496 5.22729 9.45442 5.17603 9.45442H4.30689C4.28497 9.454 4.26407 9.44464 4.24865 9.42835C4.23323 9.41205 4.22451 9.39011 4.22435 9.3672L4.2242 8.50912Z" fill="black"/>
<path d="M5.39306 5.24263H5.39962C5.50311 5.24263 5.60237 5.19967 5.67555 5.1232C5.74874 5.04674 5.78985 4.94302 5.78985 4.83488C5.78985 4.72674 5.74874 4.62302 5.67555 4.54655C5.60237 4.47008 5.50311 4.42712 5.39962 4.42712H5.39306C5.28956 4.42712 5.1903 4.47008 5.11712 4.54655C5.04394 4.62302 5.00282 4.72674 5.00282 4.83488C5.00282 4.94302 5.04394 5.04674 5.11712 5.1232C5.1903 5.19967 5.28956 5.24263 5.39306 5.24263Z" fill="black"/>
<path d="M5.62502 13.994C5.39324 13.994 5.16667 14.0658 4.97396 14.2004C4.78124 14.3349 4.63104 14.5262 4.54234 14.7499C4.45365 14.9737 4.43044 15.2199 4.47566 15.4574C4.52088 15.6949 4.63249 15.9131 4.79638 16.0843C4.96027 16.2556 5.16907 16.3722 5.3964 16.4195C5.62372 16.4667 5.85934 16.4425 6.07348 16.3498C6.28761 16.2571 6.47063 16.1002 6.5994 15.8988C6.72817 15.6974 6.7969 15.4607 6.7969 15.2185C6.7965 14.8939 6.67291 14.5827 6.45323 14.3531C6.23354 14.1236 5.9357 13.9944 5.62502 13.994ZM5.62502 15.6267C5.54776 15.6267 5.47224 15.6027 5.408 15.5579C5.34376 15.513 5.29369 15.4493 5.26413 15.3747C5.23456 15.3001 5.22683 15.2181 5.2419 15.1389C5.25697 15.0597 5.29417 14.987 5.3488 14.9299C5.40343 14.8728 5.47304 14.8339 5.54881 14.8182C5.62458 14.8024 5.70313 14.8105 5.7745 14.8414C5.84588 14.8723 5.90689 14.9246 5.94981 14.9917C5.99273 15.0589 6.01564 15.1378 6.01564 15.2185C6.01554 15.3267 5.97436 15.4305 5.90113 15.5071C5.8279 15.5836 5.7286 15.6267 5.62502 15.6268V15.6267Z" fill="black"/>
<path d="M15.2344 13.9532C15.0026 13.9532 14.7761 14.0251 14.5833 14.1596C14.3906 14.2942 14.2404 14.4854 14.1517 14.7091C14.063 14.9329 14.0398 15.1791 14.085 15.4166C14.1303 15.6541 14.2419 15.8723 14.4058 16.0436C14.5697 16.2148 14.7785 16.3314 15.0058 16.3787C15.2331 16.4259 15.4687 16.4017 15.6829 16.309C15.897 16.2163 16.08 16.0594 16.2088 15.858C16.3376 15.6567 16.4063 15.4199 16.4063 15.1777C16.4059 14.8531 16.2823 14.5419 16.0626 14.3123C15.843 14.0828 15.5451 13.9536 15.2344 13.9532ZM15.2344 15.5859C15.1571 15.5859 15.0816 15.562 15.0174 15.5171C14.9531 15.4723 14.9031 15.4085 14.8735 15.3339C14.844 15.2593 14.8362 15.1773 14.8513 15.0981C14.8664 15.0189 14.9036 14.9462 14.9582 14.8891C15.0128 14.832 15.0824 14.7932 15.1582 14.7774C15.234 14.7617 15.3125 14.7697 15.3839 14.8006C15.4553 14.8315 15.5163 14.8838 15.5592 14.951C15.6021 15.0181 15.625 15.097 15.625 15.1777C15.6249 15.286 15.5838 15.3898 15.5105 15.4663C15.4373 15.5429 15.338 15.5859 15.2344 15.5861V15.5859Z" fill="black"/>
</svg>
